<?xml version="1.0" encoding="UTF-8"?> <svg xmlns="http://www.w3.org/2000/svg" id="Layer_2" viewBox="0 0 208 57.49"><defs><style>.cls-1{fill:#e3dfde;}.cls-2{fill:#32a8a8;}</style></defs><g id="Layer_1-2"><g><path class="cls-2" d="M44,17.3h-8.31v24.46c0,5.59-1.44,10.24-3.88,13h12.73c10.95,0,19.64-3.98,19.64-18.89s-9.76-18.57-20.18-18.57Zm1.23,28.82h-1.77V25.94h1.93c4.45,0,6.06,2.36,6.06,9.93s-1.4,10.25-6.23,10.25Zm33.6-6.28h10.46v-8.21h-10.46v-5.8h11.91l1.23-8.53h-25.54V54.76h25.11v-8.54h-12.72v-6.39Zm33.65-9.23c-5.04-1.66-6.38-2.03-6.38-3.7,0-1.23,.96-2.1,3.43-2.1,2.91,0,5.48,1.02,7.89,2.95l5.36-6.33c-3.48-3.38-8.16-5.25-14.33-5.25-8.63,0-15.13,4.4-15.13,11.8,0,5.37,2.36,9.39,11.81,12.4,4.55,1.4,5.58,2.21,5.58,4.14,0,1.34-.96,2.62-3.92,2.62-3.38,0-6.39-1.33-9.06-3.64l-6.01,6.6c3.06,2.96,8.04,5.85,15.61,5.85,10.14,0,16.26-5.15,16.26-12.56,0-6.6-3.07-10.14-11.11-12.77h0Zm13.26,24.16h12.39V17.3h-12.39V54.76Zm32.74-14.07h3.17v5.85c-1.02,.44-1.88,.7-3.12,.7-3.87,0-5.41-2.31-5.41-11.21,0-7.57,2.4-11.32,7.56-11.32,2.74,0,4.57,.96,7.03,2.63l5.9-6.12c-3.05-2.68-7.83-5.04-13.73-5.04-11.32,0-19.48,7.08-19.48,19.79s5.36,19.96,18.51,19.96c4.67,0,10.46-1.61,14.6-4.5v-18.94h-16.1l1.07,8.21Zm38.63-23.4v10.14c0,7.24,.86,11.16,1.67,16.31l-6.98-26.45h-15.13V54.76h10.89v-10.36c0-6.97-1.01-12.23-1.61-15.99l6.61,26.35h15.45V17.3h-10.9Z"></path><path class="cls-1" d="M22.51,37.11c0-6.86-5.09-8.24-9.88-9.25-5.54-1.14-8.49-1.88-8.49-5.27,0-2.96,2.39-4.47,5.54-4.47,.41,0,.81,.04,1.2,.1,4.22,.69,7.2,4.93,8.12,8.32l2.01-.19-.22-1.73-.94-7.27-.16-1.25h-1.82l-.46,1.12-.55,1.34c-1.35-1.14-3.54-2.41-5.97-2.75-.39-.06-.8-.09-1.2-.09C4.08,15.73,.62,20.19,.62,24.28c0,7.23,5.6,8.43,10.56,9.43,4.03,.82,7.68,1.51,7.68,5.1,0,2.81-1.93,4.6-4.99,5h-.01c-.42,.06-.88,.09-1.36,.09-4.41,0-8.04-3.64-9.79-7.73-.3-.67-.54-1.37-.71-2.07H0l1.32,11.95h1.82l.54-1.26,.66-1.57c.56,.51,1.21,.97,1.92,1.37,1.82,1.05,4.05,1.71,6.19,1.71,.44,0,.87-.03,1.28-.08,5.23-.59,8.78-4.68,8.78-9.1m8.61-21.02c-2.43,1.2-5.73,2.33-8.63,2.45-.16,.01-.32,.01-.48,.01v2.32h3.14c2.71,0,2.89,.89,2.89,2.89v18.62c0,4.74-.03,8.51-.7,10.39-.29,.85-.71,1.31-1.31,1.31-.64,0-1.2-.56-1.2-1.57,0-.74-.49-1.35-1.19-1.66-.36-.19-.78-.29-1.21-.29-1.82,0-2.96,1.45-2.96,3.27,0,2.21,2.27,3.65,4.22,3.65,.47,0,.94-.05,1.38-.15h.01c2.5-.5,4.55-2.38,5.97-5.2,1.36-2.71,2.13-6.3,2.13-10.37V16.1h-2.08ZM31.49,.24c-.4-.16-.81-.24-1.25-.24-2.02,0-3.59,1.69-3.59,3.84s1.57,3.83,3.59,3.83c.44,0,.85-.07,1.25-.24,1.4-.52,2.39-1.92,2.39-3.59s-1-3.08-2.39-3.6h0Z"></path></g></g></svg> 